<!DOCTYPE svg PUBLIC "-//W3C//DTD SVG 20010904//EN" "http://www.w3.org/TR/2001/REC-SVG-20010904/DTD/svg10.dtd">
<svg version="1.0" xmlns="http://www.w3.org/2000/svg" width="720px" height="540px" viewBox="0 0 7200 5400" preserveAspectRatio="xMidYMid meet">
<g id="layer101" fill="#070707" stroke="none">
 <path d="M0 2700 l0 -2700 3600 0 3600 0 0 2700 0 2700 -3600 0 -3600 0 0 -2700z"/>
 </g>
<g id="layer102" fill="#333333" stroke="none">
 <path d="M0 2700 l0 -2700 3600 0 3600 0 0 2700 0 2700 -3600 0 -3600 0 0 -2700z m3218 413 c-10 -2 -28 -2 -40 0 -13 2 -5 4 17 4 22 1 32 -1 23 -4z m2436 -26 c60 -28 108 -73 139 -131 l22 -41 6 95 c4 80 5 67 7 -77 l2 -173 -157 2 -158 2 150 6 150 5 -3 60 c-4 67 -19 109 -57 159 -50 65 -113 97 -230 117 -47 8 -46 8 14 4 37 -3 86 -15 115 -28z m-2544 9 c-130 -35 -217 -143 -238 -294 -37 -270 148 -484 382 -441 70 12 102 28 151 71 39 33 64 75 76 123 6 26 7 27 8 6 1 -13 -11 -45 -26 -72 -99 -183 -394 -193 -528 -18 -116 153 -109 401 16 544 45 50 127 93 179 94 15 0 7 -5 -20 -13z m228 -17 c43 -21 72 -44 96 -77 39 -54 70 -125 63 -144 -4 -9 -6 -7 -6 4 -2 33 -40 107 -77 148 -40 44 -75 66 -139 86 -24 7 -31 13 -19 13 11 1 48 -13 82 -30z m2095 21 c-105 -21 -193 -101 -233 -213 -11 -28 -19 -44 -20 -33 0 33 62 146 98 178 46 40 129 78 167 77 25 -1 24 -2 -12 -9z m-4591 -690 c25 53 176 396 244 553 32 75 64 137 69 137 6 0 82 -163 170 -362 l160 -363 3 363 c1 230 6 362 12 362 6 0 10 -133 10 -370 0 -346 -1 -370 -17 -370 -12 0 -25 18 -40 53 -90 216 -290 659 -298 659 -5 0 -79 -159 -165 -353 -85 -194 -161 -354 -168 -357 -9 -3 -11 78 -10 370 l3 373 5 -365 c5 -350 6 -364 22 -330z m795 547 l38 -97 199 2 199 3 49 120 c27 66 48 111 45 99 -6 -31 -250 -645 -254 -640 -2 2 30 90 72 195 41 106 75 194 75 197 0 2 -83 4 -185 4 -102 0 -185 -3 -185 -7 0 -4 39 -108 88 -230 57 -147 92 -223 102 -223 11 0 11 -3 2 -12 -6 -6 -14 -10 -16 -7 -7 7 -296 727 -296 736 1 16 29 -44 67 -140z m779 -207 c186 0 240 10 279 50 33 34 44 81 45 185 1 44 5 89 10 100 11 25 1 -186 -11 -236 -11 -43 -42 -74 -94 -92 l-40 -14 40 -17 c82 -35 115 -86 115 -178 0 -81 -23 -125 -81 -158 -42 -24 -52 -25 -241 -28 l-198 -4 2 374 c1 205 4 293 5 196 l3 -178 166 0z m1477 225 l45 -110 198 0 198 0 44 110 c24 61 48 115 54 120 15 15 10 1 -141 -380 -83 -210 -144 -350 -151 -350 -12 0 -61 117 -291 690 -11 28 -16 46 -11 40 6 -5 30 -59 55 -120z m625 -595 c4 0 41 48 82 107 285 405 434 608 446 611 12 3 14 -52 12 -370 l-3 -373 -2 363 c-2 215 -7 362 -12 360 -9 -3 -144 -191 -426 -590 -50 -70 -96 -128 -102 -128 -10 0 -12 80 -11 373 l3 372 2 -362 c2 -200 7 -363 11 -363z m1684 713 l-242 -3 2 -183 3 -182 225 -5 225 -6 -227 -2 -228 -2 0 -170 0 -170 243 -3 242 -2 -247 -3 -248 -2 0 370 0 370 248 -2 247 -3 -243 -2z m-2695 -270 c-4 -3 -7 0 -7 7 0 7 3 10 7 7 3 -4 3 -10 0 -14z m1670 -45 c-2 -13 -4 -5 -4 17 -1 22 1 32 4 23 2 -10 2 -28 0 -40z m-10 -50 c-3 -8 -6 -5 -6 6 -1 11 2 17 5 13 3 -3 4 -12 1 -19z m47 -183 c13 -28 37 -67 55 -87 39 -44 140 -97 190 -99 31 -2 32 -3 8 -6 -46 -7 -123 25 -176 73 -62 56 -110 148 -116 224 l-4 55 10 -55 c5 -30 20 -77 33 -105z m591 0 c-24 -83 -107 -165 -184 -184 -56 -14 -130 -22 -106 -11 11 5 34 9 50 9 84 3 204 101 227 186 7 25 15 45 20 45 4 0 1 -20 -7 -45z m-3904 -142 c-12 -20 -14 -14 -5 12 4 9 9 14 11 11 3 -2 0 -13 -6 -23z"/>
 <path d="M2250 2554 l0 -186 188 4 c220 4 251 13 290 88 58 115 -3 242 -130 270 -27 5 -116 10 -198 10 l-150 0 0 -186z"/>
 <path d="M3950 2837 c0 -17 189 -467 193 -460 7 12 177 451 177 458 0 3 -83 5 -185 5 -102 0 -185 -1 -185 -3z"/>
 </g>
<g id="layer103" fill="#4e4e4e" stroke="none">
 <path d="M0 2700 l0 -2700 3600 0 3600 0 0 2700 0 2700 -3600 0 -3600 0 0 -2700z m3303 400 c29 -11 72 -36 95 -55 47 -41 100 -140 107 -200 5 -37 4 -36 -13 15 -57 170 -148 243 -303 244 -63 0 -86 -5 -132 -27 -67 -33 -120 -90 -156 -166 -23 -50 -26 -67 -26 -171 1 -138 21 -201 91 -279 66 -73 128 -101 229 -101 71 0 90 4 143 31 72 35 118 86 135 147 6 23 15 42 19 42 13 0 -2 -51 -28 -97 -88 -153 -318 -190 -469 -75 -130 98 -181 320 -115 495 64 169 257 259 423 197z m2315 5 c71 -21 131 -70 167 -135 l30 -55 6 100 c4 85 5 74 7 -77 l2 -178 -157 2 -158 2 150 6 150 5 -3 55 c-13 220 -249 343 -458 238 -92 -46 -160 -155 -173 -276 -18 -187 51 -337 187 -404 40 -19 63 -23 147 -23 83 0 107 4 141 22 56 30 109 92 131 152 19 54 38 70 27 24 -12 -51 -57 -124 -96 -154 -98 -78 -241 -90 -362 -30 -98 48 -152 122 -182 248 -39 166 19 350 139 435 77 55 204 73 305 43z m-4292 -366 l159 -361 3 366 c1 239 6 365 12 361 6 -4 10 -143 10 -376 0 -348 -1 -369 -18 -369 -14 0 -52 79 -174 356 -85 195 -159 355 -163 355 -4 0 -78 -160 -164 -355 -119 -271 -160 -356 -173 -356 -17 0 -18 24 -18 370 0 240 4 370 10 370 6 0 10 -126 10 -357 0 -215 4 -353 9 -347 5 5 73 155 151 334 163 372 168 382 179 376 4 -3 80 -168 167 -367z m306 236 l44 -110 197 0 198 0 43 105 c23 58 45 114 49 124 4 10 10 17 13 14 2 -3 0 -16 -5 -29 -5 -13 -71 -180 -146 -371 -77 -195 -142 -348 -149 -348 -7 0 -79 164 -162 367 -174 427 -160 392 -141 373 9 -8 35 -64 59 -125z m1127 70 c-4 -33 -8 -86 -8 -117 -2 -105 -35 -154 -121 -178 -24 -7 -24 -8 15 -24 79 -34 118 -90 118 -171 0 -101 -40 -162 -121 -185 -20 -5 -121 -10 -224 -10 l-188 0 0 370 c0 240 4 370 10 370 6 0 10 -65 10 -176 l0 -176 188 4 c166 3 191 5 222 23 56 34 71 71 77 193 5 91 17 153 27 140 2 -1 0 -30 -5 -63z m1132 -63 l47 -117 197 0 197 0 47 117 c46 115 61 145 61 117 0 -32 -286 -734 -300 -736 -11 -2 -56 99 -163 364 -81 203 -147 372 -147 377 0 22 18 -13 61 -122z m628 -212 c1 -173 1 -332 1 -354 0 -36 14 -18 258 325 142 199 263 364 270 367 9 3 11 -83 10 -375 l-3 -378 -2 350 c-2 193 -5 356 -8 364 -3 8 -45 -43 -103 -125 -353 -498 -415 -584 -428 -584 -12 0 -14 59 -14 378 0 238 4 372 10 362 5 -8 9 -152 9 -330z m1926 330 c4 -6 -77 -11 -237 -12 l-243 -3 0 -180 0 -180 225 -5 225 -5 -225 -5 -225 -5 -3 -134 c-2 -74 -1 -149 3 -167 l6 -34 237 -3 237 -2 -247 -3 -248 -2 0 374 0 375 244 1 c155 0 247 -3 251 -10z"/>
 <path d="M1694 2822 c20 -63 176 -437 182 -437 6 0 183 437 184 453 0 1 -84 2 -186 2 -173 0 -185 -1 -180 -18z"/>
 <path d="M2258 2734 c-5 -4 -8 -88 -8 -187 l0 -179 188 4 c169 3 191 6 228 25 75 40 104 142 65 228 -41 90 -89 107 -301 113 -91 2 -168 1 -172 -4z"/>
 <path d="M3963 2808 c7 -18 49 -122 92 -230 43 -109 81 -198 84 -198 5 0 102 245 177 443 6 16 -7 17 -180 17 l-186 0 13 -32z"/>
 </g>
<g id="layer104" fill="#717171" stroke="none">
 <path d="M0 2700 l0 -2700 3600 0 3600 0 0 2700 0 2700 -3600 0 -3600 0 0 -2700z m3334 390 c63 -32 130 -107 155 -176 20 -53 30 -135 11 -89 -4 11 -13 38 -19 60 -56 210 -329 290 -494 146 -128 -113 -156 -362 -58 -521 34 -56 118 -125 168 -139 48 -14 147 -14 195 -1 63 18 130 70 160 125 15 28 28 58 28 68 0 9 5 17 10 17 26 0 -16 -99 -63 -148 -81 -85 -232 -116 -348 -73 -140 53 -229 201 -229 381 0 173 86 311 227 365 60 23 196 15 257 -15z m2329 0 c54 -27 111 -85 133 -134 12 -29 13 -26 14 56 0 48 5 90 10 93 7 4 10 -55 10 -169 l0 -176 -156 0 c-101 0 -153 3 -149 10 4 6 63 10 146 10 l139 0 0 53 c0 148 -132 269 -293 269 -92 0 -143 -15 -204 -61 -90 -68 -133 -170 -133 -316 0 -118 30 -196 104 -271 43 -43 76 -66 110 -77 63 -22 169 -22 231 0 66 22 137 94 161 162 10 28 22 51 26 51 12 0 10 -15 -9 -62 -26 -67 -77 -124 -141 -155 -50 -25 -68 -28 -152 -28 -85 0 -101 3 -153 29 -134 68 -206 214 -195 392 7 107 37 182 101 250 75 79 143 106 262 101 71 -2 100 -8 138 -27z m-4822 -670 c9 19 80 181 159 360 79 179 145 327 147 330 10 11 35 -41 178 -367 81 -186 152 -342 157 -347 4 -6 8 153 8 352 0 235 4 362 10 362 6 0 10 -132 10 -375 0 -356 -1 -375 -18 -375 -15 0 -52 76 -177 360 -87 198 -159 360 -160 360 -1 0 -74 -162 -161 -360 -122 -276 -163 -360 -176 -360 -17 0 -18 24 -18 368 0 203 3 372 8 376 4 4 9 -156 12 -356 5 -343 6 -361 21 -328z m787 568 l51 -123 194 -3 195 -2 47 117 c25 65 51 123 57 128 17 17 3 -22 -142 -390 -86 -221 -143 -351 -152 -353 -11 -2 -54 93 -163 360 -81 200 -150 369 -152 376 -3 6 -1 12 5 12 5 0 32 -55 60 -122z m805 -236 c272 5 290 18 305 226 8 108 15 145 25 131 2 -2 -2 -65 -8 -139 -8 -96 -17 -143 -29 -162 -18 -27 -71 -58 -103 -59 -10 0 6 -12 35 -26 82 -40 119 -109 106 -203 -9 -66 -38 -109 -94 -137 -41 -22 -57 -23 -242 -23 l-198 0 0 368 c0 203 3 372 8 376 4 4 8 -74 10 -174 l2 -182 183 4z m1462 225 l47 -117 195 2 195 3 48 120 c26 65 53 121 59 123 9 3 8 -5 -1 -29 -8 -19 -75 -188 -149 -376 -95 -242 -139 -343 -149 -343 -11 0 -58 105 -163 364 -81 201 -147 371 -147 377 0 28 20 -11 65 -124z m627 -237 l3 -353 255 358 c140 197 261 360 268 363 9 3 12 -76 12 -372 0 -241 -4 -376 -10 -376 -6 0 -11 130 -12 356 l-3 356 -31 -43 c-342 -484 -477 -669 -489 -669 -13 0 -15 52 -15 377 0 248 3 374 10 367 6 -6 11 -148 12 -364z m1928 360 c0 -6 -87 -10 -240 -10 l-240 0 0 -185 0 -186 221 1 c121 1 223 -1 227 -4 3 -3 -97 -6 -221 -6 l-227 0 0 -170 0 -170 243 -3 242 -2 -252 -3 -253 -2 0 375 0 375 250 0 c160 0 250 -4 250 -10z"/>
 <path d="M1693 2828 c114 -288 181 -448 187 -441 4 4 38 87 75 183 37 96 76 196 86 223 l19 47 -186 0 c-145 0 -185 -3 -181 -12z"/>
 <path d="M2252 2553 l3 -178 110 -3 c234 -7 306 10 359 81 33 44 30 141 -6 194 -48 72 -86 83 -291 83 l-177 0 2 -177z"/>
 <path d="M3967 2798 c96 -243 172 -418 177 -410 3 5 42 104 87 218 45 115 83 215 86 222 4 9 -36 12 -181 12 l-186 0 17 -42z"/>
 </g>
<g id="layer105" fill="#919191" stroke="none">
 <path d="M0 2700 l0 -2700 3600 0 3600 0 0 2700 0 2700 -3600 0 -3600 0 0 -2700z m3335 393 c83 -43 161 -153 179 -250 9 -55 -12 -37 -29 25 -42 148 -148 232 -291 232 -82 0 -122 -11 -181 -52 -136 -92 -184 -323 -104 -494 61 -130 158 -194 292 -194 120 0 240 80 270 179 12 42 29 55 29 24 -1 -34 -38 -98 -81 -141 -56 -55 -128 -82 -218 -82 -95 0 -159 23 -223 80 -87 77 -127 179 -128 320 0 169 82 308 214 360 69 27 212 24 271 -7z m2296 12 c57 -20 114 -66 150 -124 l29 -45 0 87 c0 51 4 87 10 87 6 0 10 -65 10 -175 l0 -175 -155 0 c-97 0 -155 4 -155 10 0 6 55 10 145 10 l145 0 0 43 c0 96 -66 203 -154 250 -34 18 -57 22 -142 22 -92 0 -105 -2 -159 -30 -207 -106 -239 -463 -57 -627 101 -91 286 -103 395 -26 40 28 85 93 97 140 6 21 15 38 20 38 25 0 -13 -98 -57 -149 -55 -64 -121 -94 -223 -99 -116 -5 -183 20 -261 97 -82 82 -103 143 -104 291 0 89 4 127 19 166 38 101 109 174 205 209 50 19 187 18 242 0z m-4809 -357 l3 -362 160 362 c87 199 164 362 170 362 5 0 79 -157 163 -348 85 -192 158 -355 163 -363 5 -8 9 130 9 349 0 234 4 362 10 362 6 0 10 -131 10 -374 0 -377 -4 -416 -35 -373 -6 8 -81 174 -165 367 -134 305 -156 348 -165 329 -5 -13 -78 -176 -160 -363 -99 -224 -156 -341 -165 -341 -13 0 -15 54 -18 378 -1 246 1 377 8 377 6 0 11 -129 12 -362z m780 307 c11 -28 33 -83 50 -122 l30 -73 192 0 192 0 49 123 c51 130 53 133 60 126 2 -3 -2 -25 -9 -49 -25 -82 -267 -685 -280 -698 -10 -11 -15 -11 -23 0 -7 9 -248 600 -301 737 -3 8 0 12 8 9 7 -2 21 -26 32 -53z m650 -122 l3 -178 120 -3 c153 -4 270 10 304 36 36 27 49 70 56 193 6 95 16 142 28 129 9 -10 -15 -254 -28 -286 -15 -37 -67 -74 -105 -74 -20 -1 -14 -6 28 -26 33 -17 62 -40 77 -63 47 -71 42 -177 -11 -241 -47 -56 -78 -62 -294 -64 l-195 -1 -3 378 c-1 243 1 377 8 377 6 0 11 -69 12 -177z m1643 49 l49 -122 192 0 192 0 47 118 c45 114 60 141 70 131 9 -10 -292 -754 -306 -754 -8 0 -69 136 -156 350 -171 420 -166 408 -150 402 6 -2 34 -58 62 -125z m627 -232 l3 -361 204 288 c112 158 227 321 255 360 28 40 57 73 64 73 9 0 12 -83 12 -382 0 -251 -3 -379 -10 -372 -6 6 -11 147 -12 362 l-3 352 -245 -347 c-252 -356 -265 -373 -281 -373 -5 0 -9 153 -9 380 0 243 4 380 10 380 6 0 11 -132 12 -360z m1928 350 c0 -6 -87 -10 -240 -10 l-240 0 0 -180 0 -180 220 -2 c138 -2 220 -7 220 -13 0 -6 -82 -11 -220 -13 l-220 -2 0 -160 0 -160 238 -2 c152 -2 236 -7 235 -13 -2 -6 -95 -11 -248 -13 l-245 -2 0 380 0 380 250 0 c160 0 250 -4 250 -10z"/>
 <path d="M1703 2808 c7 -18 49 -122 92 -231 53 -133 82 -193 87 -183 13 23 168 426 168 436 0 6 -70 10 -180 10 l-180 0 13 -32z"/>
 <path d="M2250 2555 l0 -176 199 3 c185 3 202 5 228 24 44 33 67 81 67 139 0 66 -28 121 -77 153 -40 26 -44 27 -229 30 l-188 4 0 -177z"/>
 <path d="M4043 2611 c51 -127 95 -227 99 -223 5 6 70 170 154 390 l24 62 -184 0 -184 0 91 -229z"/>
 </g>
<g id="layer106" fill="#b0b0b0" stroke="none">
 <path d="M0 2700 l0 -2700 3600 0 3600 0 0 2700 0 2700 -3600 0 -3600 0 0 -2700z m3291 409 c56 -14 128 -68 164 -123 32 -49 72 -162 62 -173 -11 -10 -27 8 -27 30 0 36 -48 129 -88 170 -57 59 -105 80 -197 85 -66 3 -89 0 -129 -17 -100 -44 -161 -118 -192 -235 -37 -137 3 -303 96 -396 82 -82 197 -110 315 -76 73 22 157 101 175 165 12 44 30 55 30 18 0 -67 -111 -182 -198 -207 -55 -15 -172 -12 -225 6 -56 19 -136 88 -171 148 -61 104 -74 269 -31 390 64 181 224 264 416 215z m2364 -13 c54 -24 109 -76 137 -129 l17 -32 1 88 c0 66 3 88 13 85 9 -4 12 -48 12 -179 l0 -174 -157 -3 c-136 -2 -158 0 -158 13 0 13 22 15 145 15 l145 0 0 43 c0 150 -118 265 -281 275 -100 6 -162 -14 -229 -75 -87 -78 -127 -187 -117 -322 7 -100 39 -180 96 -241 67 -72 125 -95 236 -95 81 0 95 3 144 30 64 36 105 83 127 147 18 55 39 66 29 16 -18 -88 -104 -178 -193 -204 -79 -23 -203 -16 -265 16 -102 51 -181 170 -195 291 -28 242 86 424 287 459 65 11 148 2 206 -24z m-4835 -343 c0 -197 4 -353 9 -347 4 5 77 165 161 357 84 191 158 347 165 347 7 0 83 -163 171 -362 l159 -362 3 362 c1 230 6 362 12 362 6 0 10 -137 10 -380 0 -324 -2 -380 -14 -380 -8 0 -18 6 -23 13 -4 6 -76 166 -159 355 -83 189 -155 343 -159 343 -5 0 -76 -154 -159 -343 -83 -189 -155 -349 -159 -355 -5 -7 -15 -13 -23 -13 -12 0 -14 56 -14 380 0 247 4 380 10 380 6 0 10 -126 10 -357z m813 229 l49 -122 192 0 191 0 49 125 c27 69 53 125 59 125 16 0 1 -41 -143 -405 -83 -212 -143 -351 -152 -353 -10 -2 -56 99 -161 360 -177 440 -163 402 -146 396 7 -2 35 -59 62 -126z m617 -47 l0 -175 183 0 c155 0 188 3 223 19 53 24 74 67 75 158 0 102 17 189 33 172 11 -11 -14 -260 -29 -289 -17 -34 -69 -70 -100 -70 -12 0 1 -12 35 -32 75 -45 103 -99 97 -185 -6 -80 -33 -125 -95 -154 -43 -21 -64 -24 -244 -27 l-198 -4 0 381 c0 247 4 381 10 381 6 0 10 -65 10 -175z m1645 50 l49 -125 192 0 192 0 47 118 c46 116 60 141 70 130 3 -3 -61 -173 -143 -379 -100 -252 -153 -374 -162 -374 -10 0 -65 123 -167 370 -83 204 -152 373 -152 378 -1 4 5 7 12 7 6 0 34 -56 62 -125z m627 -235 l3 -359 255 359 c140 198 260 360 267 360 10 0 13 -79 13 -380 0 -247 -4 -380 -10 -380 -6 0 -10 127 -10 362 l0 362 -255 -360 c-226 -318 -282 -388 -286 -357 -2 11 -2 29 0 411 1 217 5 342 11 342 6 0 11 -131 12 -360z m1928 350 c0 -6 -87 -10 -240 -10 l-240 0 0 -180 0 -180 226 0 c176 0 225 -3 222 -12 -4 -10 -60 -14 -226 -16 l-222 -2 0 -160 0 -160 238 -2 c152 -2 236 -7 235 -13 -4 -16 -493 -19 -493 -3 -1 31 -1 734 -1 741 1 11 501 9 501 -3z"/>
 <path d="M1703 2808 c7 -18 49 -120 92 -226 43 -106 82 -189 86 -185 7 8 156 389 166 426 5 16 -8 17 -176 17 l-181 0 13 -32z"/>
 <path d="M2250 2554 l0 -175 193 3 c208 3 232 9 270 60 43 58 37 170 -11 221 -54 58 -89 67 -279 67 l-173 0 0 -176z"/>
 <path d="M3960 2833 c0 -14 174 -443 179 -443 3 0 39 87 80 193 41 105 80 207 88 225 l13 32 -180 0 c-99 0 -180 -3 -180 -7z"/>
 </g>
<g id="layer107" fill="#d3d3d3" stroke="none">
 <path d="M0 2700 l0 -2700 3600 0 3600 0 0 2700 0 2700 -3600 0 -3600 0 0 -2700z m3337 389 c34 -16 76 -46 94 -66 58 -66 110 -213 76 -213 -9 0 -17 14 -21 35 -28 146 -134 242 -276 253 -98 7 -160 -17 -231 -87 -94 -95 -128 -226 -95 -374 46 -206 217 -317 403 -262 89 26 151 83 178 162 15 43 35 55 35 21 0 -29 -34 -94 -68 -131 -15 -15 -55 -42 -90 -59 -55 -27 -73 -31 -147 -31 -71 0 -92 4 -140 28 -147 71 -228 245 -204 439 31 254 265 392 486 285z m2318 7 c56 -26 114 -79 139 -129 15 -32 16 -31 16 56 0 71 3 87 15 87 13 0 15 -24 13 -177 l-3 -178 -157 -3 c-136 -2 -158 0 -158 13 0 13 22 15 146 15 l147 0 -6 59 c-13 152 -138 261 -297 261 -216 0 -358 -197 -320 -442 29 -191 178 -313 357 -295 114 12 215 92 241 190 9 34 32 49 32 20 0 -38 -49 -120 -94 -160 -60 -53 -130 -76 -221 -75 -83 1 -140 19 -205 67 -174 128 -196 450 -42 617 95 103 265 135 397 74z m-4830 -339 c0 -190 3 -343 7 -339 4 4 75 160 157 347 83 187 156 341 164 343 7 1 19 -10 26 -25 7 -15 76 -172 153 -348 77 -176 144 -324 149 -329 5 -6 9 143 9 347 0 231 4 357 10 357 6 0 10 -133 10 -380 0 -359 -1 -380 -18 -380 -14 0 -53 79 -177 362 l-159 361 -36 -79 c-20 -43 -92 -206 -160 -361 -97 -223 -127 -283 -142 -283 -17 0 -18 18 -18 381 0 300 3 380 13 376 9 -3 12 -82 12 -350z m810 225 l49 -122 189 2 190 3 50 123 c28 69 55 122 63 122 16 0 7 -24 -157 -439 -112 -283 -138 -336 -155 -318 -8 7 -304 739 -304 750 0 5 6 7 13 5 6 -3 34 -59 62 -126z m623 -50 l2 -172 177 0 c155 0 182 2 217 20 60 29 68 48 77 189 7 109 18 155 33 140 9 -9 -12 -258 -24 -280 -22 -43 -53 -69 -88 -75 l-35 -7 39 -20 c86 -43 121 -107 111 -202 -7 -72 -33 -114 -88 -145 -42 -24 -52 -25 -246 -28 l-203 -4 0 382 c0 301 3 381 13 378 9 -4 13 -50 15 -176z m1638 53 l49 -125 191 0 191 0 49 125 c27 69 55 125 62 125 6 0 12 -2 12 -5 0 -7 -280 -716 -291 -737 -6 -10 -15 -18 -22 -18 -9 0 -241 551 -313 743 -4 11 -1 17 8 17 10 0 33 -45 64 -125z m626 -233 l3 -359 253 359 c184 259 259 358 273 358 19 0 19 -10 17 -377 -2 -288 -6 -377 -15 -380 -10 -4 -13 74 -15 354 l-3 358 -254 -358 c-176 -248 -259 -357 -270 -355 -14 3 -16 44 -19 381 -2 330 0 377 13 377 13 0 15 -48 17 -358z m1933 343 c0 -6 -89 -11 -242 -13 l-243 -2 0 -175 0 -175 225 0 c193 0 225 -2 225 -15 0 -13 -32 -15 -225 -15 l-225 0 0 -160 0 -160 240 0 c208 0 240 -2 240 -15 0 -13 -32 -15 -252 -13 l-253 3 -3 378 -2 377 257 -2 c164 -2 258 -7 258 -13z"/>
 <path d="M1700 2830 c0 -23 174 -440 180 -433 5 6 104 260 166 426 6 16 -6 17 -170 17 -115 0 -176 -4 -176 -10z"/>
 <path d="M2260 2554 l0 -176 188 4 c166 3 191 5 222 23 46 27 70 76 70 143 0 61 -17 99 -60 135 -46 39 -90 47 -262 47 l-158 0 0 -176z"/>
 <path d="M3964 2823 c3 -10 44 -112 90 -228 l84 -210 18 40 c33 79 154 396 154 405 0 6 -71 10 -176 10 -162 0 -175 -1 -170 -17z"/>
 </g>
<g id="layer108" fill="#ffffff" stroke="none">
 <path d="M0 2700 l0 -2700 3600 0 3600 0 0 2700 0 2700 -3600 0 -3600 0 0 -2700z m3327 400 c82 -36 144 -108 176 -204 21 -60 21 -86 3 -86 -15 0 -26 21 -26 48 0 34 -49 121 -90 161 -79 77 -225 97 -333 46 -213 -100 -249 -459 -63 -623 67 -59 92 -67 201 -67 92 0 104 2 154 30 57 31 107 94 118 148 4 18 12 27 24 27 16 0 18 -5 13 -27 -17 -72 -81 -150 -151 -186 -47 -24 -142 -39 -199 -32 -74 9 -166 57 -209 109 -187 228 -101 600 155 673 61 17 168 9 227 -17z m2273 19 c66 -14 137 -63 178 -123 l32 -48 0 81 c0 65 3 81 15 81 13 0 15 -27 15 -180 l0 -180 -160 0 c-136 0 -160 2 -160 15 0 13 23 15 146 15 l147 0 -6 54 c-14 137 -101 229 -237 254 -155 28 -296 -46 -351 -184 -20 -50 -24 -77 -24 -174 0 -106 2 -120 29 -178 36 -78 106 -144 177 -167 77 -26 201 -17 260 17 61 36 97 76 118 134 21 54 57 78 42 27 -30 -100 -73 -153 -158 -195 -62 -30 -75 -33 -155 -32 -77 1 -95 5 -152 33 -38 19 -80 49 -102 74 -134 154 -135 428 -3 572 52 56 91 81 160 99 66 18 122 19 189 5z m-4768 -354 l3 -346 151 343 c119 271 155 343 169 343 15 0 50 -72 169 -345 l151 -345 3 348 c2 299 4 347 17 347 13 0 15 -50 15 -380 0 -366 -1 -380 -19 -380 -15 0 -33 33 -86 153 -37 83 -108 245 -158 359 l-91 206 -139 -316 c-76 -175 -147 -336 -158 -360 -15 -35 -23 -43 -41 -40 l-23 3 -3 378 c-2 371 -2 377 18 377 19 0 20 -8 22 -345z m803 220 l50 -125 187 0 186 0 48 121 c44 109 64 142 80 126 3 -3 -61 -174 -143 -381 -151 -383 -165 -409 -192 -358 -17 32 -291 720 -291 731 0 6 6 11 13 11 6 0 35 -56 62 -125z m625 -51 l0 -176 188 4 c260 4 270 12 282 208 8 123 12 140 35 140 10 0 11 -9 4 -37 -5 -21 -9 -72 -9 -113 0 -41 -5 -91 -10 -111 -13 -45 -52 -86 -94 -98 l-31 -8 30 -12 c40 -16 84 -59 101 -98 20 -45 17 -130 -5 -179 -41 -89 -100 -107 -351 -102 l-175 3 -3 378 c-2 372 -2 377 18 377 19 0 20 -6 20 -176z m1643 48 l49 -122 187 0 186 0 49 125 c29 73 55 125 63 125 7 0 13 -3 13 -7 0 -4 -66 -175 -147 -380 -111 -282 -151 -373 -164 -373 -12 0 -54 92 -168 373 -83 205 -151 377 -151 381 0 4 8 6 17 4 11 -2 33 -44 66 -126z m619 -227 l3 -355 250 355 c201 285 254 354 273 355 l22 0 0 -380 c0 -330 -2 -380 -15 -380 -13 0 -15 49 -17 355 l-3 356 -253 -356 c-186 -262 -258 -355 -272 -355 -20 0 -20 8 -20 380 0 330 2 380 15 380 13 0 15 -49 17 -355z m1936 343 c-4 -10 -64 -14 -246 -16 l-242 -2 0 -175 0 -175 225 0 c193 0 225 -2 225 -15 0 -13 -32 -15 -225 -15 l-225 0 0 -160 0 -160 240 0 c207 0 240 -2 240 -15 0 -13 -35 -15 -255 -15 l-255 0 0 380 0 380 261 0 c204 0 260 -3 257 -12z"/>
 <path d="M1703 2818 c105 -270 173 -425 178 -411 4 10 41 107 83 215 42 109 76 200 76 203 0 3 -77 5 -171 5 -133 0 -170 -3 -166 -12z"/>
 <path d="M2260 2554 l0 -176 178 4 c191 5 226 13 271 61 46 50 41 164 -10 222 -46 52 -103 65 -286 65 l-153 0 0 -176z"/>
 <path d="M3973 2827 c-5 -9 159 -427 168 -427 3 0 40 91 83 203 43 111 80 207 83 214 4 9 -37 13 -162 15 -92 2 -169 -1 -172 -5z"/>
 </g>

</svg>